<?xml version="1.0" encoding="UTF-8" standalone="no"?>
<svg width="28px" height="20px" viewBox="0 0 28 20" version="1.1" xmlns="http://www.w3.org/2000/svg" xmlns:xlink="http://www.w3.org/1999/xlink">
    <!-- Generator: Sketch 41 (35326) - http://www.bohemiancoding.com/sketch -->
    <title>icon_6_column</title>
    <desc>Created with Sketch.</desc>
    <defs></defs>
    <g id="9-squares" stroke="none" stroke-width="1" fill="none" fill-rule="evenodd">
        <g id="1" transform="translate(-1240.000000, -111.000000)" fill="#DDE1E2">
            <path d="M1250,120.5 L1250,112 L1249,112 L1249,120.5 L1241,120.5 L1241,121.5 L1249,121.5 L1249,130 L1250,130 L1250,121.5 L1258,121.5 L1258,130 L1259,130 L1259,121.5 L1267,121.5 L1267,120.5 L1259,120.5 L1259,112 L1258,112 L1258,120.5 L1250,120.5 Z M1240,111 L1268,111 L1268,131 L1240,131 L1240,111 Z M1241,112 L1267,112 L1267,130 L1241,130 L1241,112 Z" id="icon_6_column"></path>
        </g>
    </g>
</svg>